# xmcd
#
# Track frame offsets:
#	150
#	18060
#	33939
#	51179
#	68930
#	83743
#	97647
#	113437
#	131082
#	143845
#
# Disc length: 2152 seconds
# Revision: 0
# Processed by: cddbd v1.5.2PL0 Copyright (c) Steve Scherf et al.
# Submitted via: dBpowerAMP V12.0
#
DISCID=7208660a
DTITLE=Kristy Cox - No Headlights
DYEAR=2019
DGENRE=Bluegrass
TTITLE0=Yesterday's Heartache
TTITLE1=The One Who Makes Her Cry
TTITLE2=No Headlights
TTITLE3=Everyday Man
TTITLE4=Train
TTITLE5=The One I Wanna Be
TTITLE6=Finger Picking Good
TTITLE7=So Many Rainy Days
TTITLE8=Running Circles Round Your Memory
TTITLE9=Hole In My Heart
EXTD=
EXTT0=
EXTT1=
EXTT2=
EXTT3=
EXTT4=
EXTT5=
EXTT6=
EXTT7=
EXTT8=
EXTT9=
PLAYORDER=
